<?xml version="1.0" encoding="UTF-8" standalone="no"?>
<!DOCTYPE svg PUBLIC "-//W3C//DTD SVG 1.1//EN"
 "http://www.w3.org/Graphics/SVG/1.1/DTD/svg11.dtd">
<!-- Generated by graphviz version 2.43.0 (0)
 -->
<!-- Title: html Pages: 1 -->
<svg width="1552pt" height="173pt"
 viewBox="0.00 0.00 1552.00 173.00" xmlns="http://www.w3.org/2000/svg" xmlns:xlink="http://www.w3.org/1999/xlink">
<g id="graph0" class="graph" transform="scale(1 1) rotate(0) translate(4 169)">
<title>html</title>
<polygon fill="white" stroke="transparent" points="-4,4 -4,-169 1548,-169 1548,4 -4,4"/>
<!-- abc -->
<g id="node1" class="node">
<title>abc</title>
<polygon fill="none" stroke="black" points="0,-124.5 0,-164.5 1544,-164.5 1544,-124.5 0,-124.5"/>
<text text-anchor="start" x="753.5" y="-148.3" font-family="Times,serif" font-size="14.00" fill="red">Read</text>
<text text-anchor="start" x="741.5" y="-133.3" font-family="Times,serif" font-size="14.00">Profiling</text>
<polygon fill="none" stroke="black" points="0,-49.5 0,-124.5 41,-124.5 41,-49.5 0,-49.5"/>
<polygon fill="none" stroke="black" points="41,-99.5 41,-124.5 128,-124.5 128,-99.5 41,-99.5"/>
<text text-anchor="start" x="68.5" y="-108.3" font-family="Times,serif" font-size="14.00">CPU</text>
<polygon fill="none" stroke="black" points="128,-99.5 128,-124.5 264,-124.5 264,-99.5 128,-99.5"/>
<text text-anchor="start" x="177.5" y="-108.3" font-family="Times,serif" font-size="14.00">Mem</text>
<polygon fill="none" stroke="black" points="264,-99.5 264,-124.5 796,-124.5 796,-99.5 264,-99.5"/>
<text text-anchor="start" x="503" y="-108.3" font-family="Times,serif" font-size="14.00">IO&#45;Disk</text>
<polygon fill="none" stroke="black" points="796,-99.5 796,-124.5 1544,-124.5 1544,-99.5 796,-99.5"/>
<text text-anchor="start" x="1139" y="-108.3" font-family="Times,serif" font-size="14.00">Network</text>
<polygon fill="lightgrey" stroke="transparent" points="41,-49.5 41,-99.5 128,-99.5 128,-49.5 41,-49.5"/>
<polygon fill="none" stroke="black" points="41,-49.5 41,-99.5 128,-99.5 128,-49.5 41,-49.5"/>
<text text-anchor="start" x="48" y="-70.8" font-family="Times,serif" font-size="14.00">util(cores)</text>
<polygon fill="lightgrey" stroke="transparent" points="128,-49.5 128,-99.5 264,-99.5 264,-49.5 128,-49.5"/>
<polygon fill="none" stroke="black" points="128,-49.5 128,-99.5 264,-99.5 264,-49.5 128,-49.5"/>
<text text-anchor="start" x="133" y="-70.8" font-family="Times,serif" font-size="14.00">throughput(GB/s)</text>
<polygon fill="lightgrey" stroke="transparent" points="264,-74.5 264,-99.5 491,-99.5 491,-74.5 264,-74.5"/>
<polygon fill="none" stroke="black" points="264,-74.5 264,-99.5 491,-99.5 491,-74.5 264,-74.5"/>
<text text-anchor="start" x="358.5" y="-83.3" font-family="Times,serif" font-size="14.00">write</text>
<polygon fill="lightgrey" stroke="transparent" points="491,-74.5 491,-99.5 718,-99.5 718,-74.5 491,-74.5"/>
<polygon fill="none" stroke="black" points="491,-74.5 491,-99.5 718,-99.5 718,-74.5 491,-74.5"/>
<text text-anchor="start" x="588" y="-83.3" font-family="Times,serif" font-size="14.00">read</text>
<polygon fill="lightgrey" stroke="transparent" points="718,-49.5 718,-99.5 796,-99.5 796,-49.5 718,-49.5"/>
<polygon fill="none" stroke="black" points="718,-49.5 718,-99.5 796,-99.5 796,-49.5 718,-49.5"/>
<text text-anchor="start" x="744.5" y="-70.8" font-family="Times,serif" font-size="14.00">util</text>
<polygon fill="lightgrey" stroke="transparent" points="796,-74.5 796,-99.5 1170,-99.5 1170,-74.5 796,-74.5"/>
<polygon fill="none" stroke="black" points="796,-74.5 796,-99.5 1170,-99.5 1170,-74.5 796,-74.5"/>
<text text-anchor="start" x="956.5" y="-83.3" font-family="Times,serif" font-size="14.00">ingress</text>
<polygon fill="lightgrey" stroke="transparent" points="1170,-74.5 1170,-99.5 1544,-99.5 1544,-74.5 1170,-74.5"/>
<polygon fill="none" stroke="black" points="1170,-74.5 1170,-99.5 1544,-99.5 1544,-74.5 1170,-74.5"/>
<text text-anchor="start" x="1333" y="-83.3" font-family="Times,serif" font-size="14.00">egress</text>
<polygon fill="none" stroke="black" points="264,-49.5 264,-74.5 403,-74.5 403,-49.5 264,-49.5"/>
<text text-anchor="start" x="269" y="-58.3" font-family="Times,serif" font-size="14.00">throughput(MB/s)</text>
<polygon fill="none" stroke="black" points="403,-49.5 403,-74.5 491,-74.5 491,-49.5 403,-49.5"/>
<text text-anchor="start" x="408" y="-58.3" font-family="Times,serif" font-size="14.00">request(/s)</text>
<polygon fill="none" stroke="black" points="491,-49.5 491,-74.5 630,-74.5 630,-49.5 491,-49.5"/>
<text text-anchor="start" x="496" y="-58.3" font-family="Times,serif" font-size="14.00">throughput(MB/s)</text>
<polygon fill="none" stroke="black" points="630,-49.5 630,-74.5 718,-74.5 718,-49.5 630,-49.5"/>
<text text-anchor="start" x="635" y="-58.3" font-family="Times,serif" font-size="14.00">request(/s)</text>
<polygon fill="none" stroke="black" points="796,-49.5 796,-74.5 933,-74.5 933,-49.5 796,-49.5"/>
<text text-anchor="start" x="801" y="-58.3" font-family="Times,serif" font-size="14.00">throughput(Mb/s)</text>
<polygon fill="none" stroke="black" points="933,-49.5 933,-74.5 1048,-74.5 1048,-49.5 933,-49.5"/>
<text text-anchor="start" x="938" y="-58.3" font-family="Times,serif" font-size="14.00">packetNum(/s)</text>
<polygon fill="none" stroke="black" points="1048,-49.5 1048,-74.5 1170,-74.5 1170,-49.5 1048,-49.5"/>
<text text-anchor="start" x="1053" y="-58.3" font-family="Times,serif" font-size="14.00">packetSize(Mb)</text>
<polygon fill="none" stroke="black" points="1170,-49.5 1170,-74.5 1307,-74.5 1307,-49.5 1170,-49.5"/>
<text text-anchor="start" x="1175" y="-58.3" font-family="Times,serif" font-size="14.00">throughput(Mb/s)</text>
<polygon fill="none" stroke="black" points="1307,-49.5 1307,-74.5 1422,-74.5 1422,-49.5 1307,-49.5"/>
<text text-anchor="start" x="1312" y="-58.3" font-family="Times,serif" font-size="14.00">packetNum(/s)</text>
<polygon fill="none" stroke="black" points="1422,-49.5 1422,-74.5 1544,-74.5 1544,-49.5 1422,-49.5"/>
<text text-anchor="start" x="1427" y="-58.3" font-family="Times,serif" font-size="14.00">packetSize(Mb)</text>
<polygon fill="lightgreen" stroke="transparent" points="0,-24.5 0,-49.5 41,-49.5 41,-24.5 0,-24.5"/>
<polygon fill="none" stroke="black" points="0,-24.5 0,-49.5 41,-49.5 41,-24.5 0,-24.5"/>
<text text-anchor="start" x="6.5" y="-33.3" font-family="Times,serif" font-size="14.00">Avg</text>
<polygon fill="none" stroke="black" points="41,-24.5 41,-49.5 128,-49.5 128,-24.5 41,-24.5"/>
<text text-anchor="start" x="46" y="-33.3" font-family="Times,serif" font-size="14.00">11.224667</text>
<polygon fill="none" stroke="black" points="128,-24.5 128,-49.5 264,-49.5 264,-24.5 128,-24.5"/>
<text text-anchor="start" x="162" y="-33.3" font-family="Times,serif" font-size="14.00">3.343375</text>
<polygon fill="none" stroke="black" points="264,-24.5 264,-49.5 403,-49.5 403,-24.5 264,-24.5"/>
<text text-anchor="start" x="299.5" y="-33.3" font-family="Times,serif" font-size="14.00">0.034937</text>
<polygon fill="none" stroke="black" points="403,-24.5 403,-49.5 491,-49.5 491,-24.5 403,-24.5"/>
<text text-anchor="start" x="413" y="-33.3" font-family="Times,serif" font-size="14.00">5.109375</text>
<polygon fill="none" stroke="black" points="491,-24.5 491,-49.5 630,-49.5 630,-24.5 491,-24.5"/>
<text text-anchor="start" x="526.5" y="-33.3" font-family="Times,serif" font-size="14.00">0.035563</text>
<polygon fill="none" stroke="black" points="630,-24.5 630,-49.5 718,-49.5 718,-24.5 630,-24.5"/>
<text text-anchor="start" x="640" y="-33.3" font-family="Times,serif" font-size="14.00">0.492188</text>
<polygon fill="none" stroke="black" points="718,-24.5 718,-49.5 796,-49.5 796,-24.5 718,-24.5"/>
<text text-anchor="start" x="723" y="-33.3" font-family="Times,serif" font-size="14.00">0.178125</text>
<polygon fill="none" stroke="black" points="796,-24.5 796,-49.5 933,-49.5 933,-24.5 796,-24.5"/>
<text text-anchor="start" x="830.5" y="-33.3" font-family="Times,serif" font-size="14.00">0.030492</text>
<polygon fill="none" stroke="black" points="933,-24.5 933,-49.5 1048,-49.5 1048,-24.5 933,-24.5"/>
<text text-anchor="start" x="952" y="-33.3" font-family="Times,serif" font-size="14.00">46.973957</text>
<polygon fill="none" stroke="black" points="1048,-24.5 1048,-49.5 1170,-49.5 1170,-24.5 1048,-24.5"/>
<text text-anchor="start" x="1075" y="-33.3" font-family="Times,serif" font-size="14.00">0.582976</text>
<polygon fill="none" stroke="black" points="1170,-24.5 1170,-49.5 1307,-49.5 1307,-24.5 1170,-24.5"/>
<text text-anchor="start" x="1204.5" y="-33.3" font-family="Times,serif" font-size="14.00">0.914863</text>
<polygon fill="none" stroke="black" points="1307,-24.5 1307,-49.5 1422,-49.5 1422,-24.5 1307,-24.5"/>
<text text-anchor="start" x="1326" y="-33.3" font-family="Times,serif" font-size="14.00">35.836061</text>
<polygon fill="none" stroke="black" points="1422,-24.5 1422,-49.5 1544,-49.5 1544,-24.5 1422,-24.5"/>
<text text-anchor="start" x="1444.5" y="-33.3" font-family="Times,serif" font-size="14.00">27.936982</text>
<polygon fill="lightgreen" stroke="transparent" points="0,0.5 0,-24.5 41,-24.5 41,0.5 0,0.5"/>
<polygon fill="none" stroke="black" points="0,0.5 0,-24.5 41,-24.5 41,0.5 0,0.5"/>
<text text-anchor="start" x="5" y="-8.3" font-family="Times,serif" font-size="14.00">Max</text>
<polygon fill="none" stroke="black" points="41,0.5 41,-24.5 128,-24.5 128,0.5 41,0.5"/>
<text text-anchor="start" x="46" y="-8.3" font-family="Times,serif" font-size="14.00">11.361875</text>
<polygon fill="none" stroke="black" points="128,0.5 128,-24.5 264,-24.5 264,0.5 128,0.5"/>
<text text-anchor="start" x="166.5" y="-8.3" font-family="Times,serif" font-size="14.00">14.5125</text>
<polygon fill="none" stroke="black" points="264,0.5 264,-24.5 403,-24.5 403,0.5 264,0.5"/>
<text text-anchor="start" x="299.5" y="-8.3" font-family="Times,serif" font-size="14.00">0.061875</text>
<polygon fill="none" stroke="black" points="403,0.5 403,-24.5 491,-24.5 491,0.5 403,0.5"/>
<text text-anchor="start" x="413" y="-8.3" font-family="Times,serif" font-size="14.00">9.984375</text>
<polygon fill="none" stroke="black" points="491,0.5 491,-24.5 630,-24.5 630,0.5 491,0.5"/>
<text text-anchor="start" x="526.5" y="-8.3" font-family="Times,serif" font-size="14.00">0.043875</text>
<polygon fill="none" stroke="black" points="630,0.5 630,-24.5 718,-24.5 718,0.5 630,0.5"/>
<text text-anchor="start" x="640" y="-8.3" font-family="Times,serif" font-size="14.00">0.671875</text>
<polygon fill="none" stroke="black" points="718,0.5 718,-24.5 796,-24.5 796,0.5 718,0.5"/>
<text text-anchor="start" x="727.5" y="-8.3" font-family="Times,serif" font-size="14.00">0.23125</text>
<polygon fill="none" stroke="black" points="796,0.5 796,-24.5 933,-24.5 933,0.5 796,0.5"/>
<text text-anchor="start" x="830.5" y="-8.3" font-family="Times,serif" font-size="14.00">0.082529</text>
<polygon fill="none" stroke="black" points="933,0.5 933,-24.5 1048,-24.5 1048,0.5 933,0.5"/>
<text text-anchor="start" x="947.5" y="-8.3" font-family="Times,serif" font-size="14.00">105.197321</text>
<polygon fill="none" stroke="black" points="1048,0.5 1048,-24.5 1170,-24.5 1170,0.5 1048,0.5"/>
<text text-anchor="start" x="1075" y="-8.3" font-family="Times,serif" font-size="14.00">4.748047</text>
<polygon fill="none" stroke="black" points="1170,0.5 1170,-24.5 1307,-24.5 1307,0.5 1170,0.5"/>
<text text-anchor="start" x="1204.5" y="-8.3" font-family="Times,serif" font-size="14.00">1.943548</text>
<polygon fill="none" stroke="black" points="1307,0.5 1307,-24.5 1422,-24.5 1422,0.5 1307,0.5"/>
<text text-anchor="start" x="1326" y="-8.3" font-family="Times,serif" font-size="14.00">76.499991</text>
<polygon fill="none" stroke="black" points="1422,0.5 1422,-24.5 1544,-24.5 1544,0.5 1422,0.5"/>
<text text-anchor="start" x="1444.5" y="-8.3" font-family="Times,serif" font-size="14.00">51.363281</text>
</g>
</g>
</svg>
