<?xml version="1.0" encoding="UTF-8" standalone="no"?>
<!DOCTYPE svg PUBLIC "-//W3C//DTD SVG 1.1//EN"
 "http://www.w3.org/Graphics/SVG/1.1/DTD/svg11.dtd">
<!-- Generated by graphviz version 2.43.0 (0)
 -->
<!-- Title: html Pages: 1 -->
<svg width="1548pt" height="173pt"
 viewBox="0.00 0.00 1548.00 173.00" xmlns="http://www.w3.org/2000/svg" xmlns:xlink="http://www.w3.org/1999/xlink">
<g id="graph0" class="graph" transform="scale(1 1) rotate(0) translate(4 169)">
<title>html</title>
<polygon fill="white" stroke="transparent" points="-4,4 -4,-169 1544,-169 1544,4 -4,4"/>
<!-- abc -->
<g id="node1" class="node">
<title>abc</title>
<polygon fill="none" stroke="black" points="0,-124.5 0,-164.5 1540,-164.5 1540,-124.5 0,-124.5"/>
<text text-anchor="start" x="750" y="-148.3" font-family="Times,serif" font-size="14.00" fill="red">Write</text>
<text text-anchor="start" x="739.5" y="-133.3" font-family="Times,serif" font-size="14.00">Profiling</text>
<polygon fill="none" stroke="black" points="0,-49.5 0,-124.5 41,-124.5 41,-49.5 0,-49.5"/>
<polygon fill="none" stroke="black" points="41,-99.5 41,-124.5 124,-124.5 124,-99.5 41,-99.5"/>
<text text-anchor="start" x="66.5" y="-108.3" font-family="Times,serif" font-size="14.00">CPU</text>
<polygon fill="none" stroke="black" points="124,-99.5 124,-124.5 260,-124.5 260,-99.5 124,-99.5"/>
<text text-anchor="start" x="173.5" y="-108.3" font-family="Times,serif" font-size="14.00">Mem</text>
<polygon fill="none" stroke="black" points="260,-99.5 260,-124.5 792,-124.5 792,-99.5 260,-99.5"/>
<text text-anchor="start" x="499" y="-108.3" font-family="Times,serif" font-size="14.00">IO&#45;Disk</text>
<polygon fill="none" stroke="black" points="792,-99.5 792,-124.5 1540,-124.5 1540,-99.5 792,-99.5"/>
<text text-anchor="start" x="1135" y="-108.3" font-family="Times,serif" font-size="14.00">Network</text>
<polygon fill="lightgrey" stroke="transparent" points="41,-49.5 41,-99.5 124,-99.5 124,-49.5 41,-49.5"/>
<polygon fill="none" stroke="black" points="41,-49.5 41,-99.5 124,-99.5 124,-49.5 41,-49.5"/>
<text text-anchor="start" x="46" y="-70.8" font-family="Times,serif" font-size="14.00">util(cores)</text>
<polygon fill="lightgrey" stroke="transparent" points="124,-49.5 124,-99.5 260,-99.5 260,-49.5 124,-49.5"/>
<polygon fill="none" stroke="black" points="124,-49.5 124,-99.5 260,-99.5 260,-49.5 124,-49.5"/>
<text text-anchor="start" x="129" y="-70.8" font-family="Times,serif" font-size="14.00">throughput(GB/s)</text>
<polygon fill="lightgrey" stroke="transparent" points="260,-74.5 260,-99.5 487,-99.5 487,-74.5 260,-74.5"/>
<polygon fill="none" stroke="black" points="260,-74.5 260,-99.5 487,-99.5 487,-74.5 260,-74.5"/>
<text text-anchor="start" x="354.5" y="-83.3" font-family="Times,serif" font-size="14.00">write</text>
<polygon fill="lightgrey" stroke="transparent" points="487,-74.5 487,-99.5 714,-99.5 714,-74.5 487,-74.5"/>
<polygon fill="none" stroke="black" points="487,-74.5 487,-99.5 714,-99.5 714,-74.5 487,-74.5"/>
<text text-anchor="start" x="584" y="-83.3" font-family="Times,serif" font-size="14.00">read</text>
<polygon fill="lightgrey" stroke="transparent" points="714,-49.5 714,-99.5 792,-99.5 792,-49.5 714,-49.5"/>
<polygon fill="none" stroke="black" points="714,-49.5 714,-99.5 792,-99.5 792,-49.5 714,-49.5"/>
<text text-anchor="start" x="740.5" y="-70.8" font-family="Times,serif" font-size="14.00">util</text>
<polygon fill="lightgrey" stroke="transparent" points="792,-74.5 792,-99.5 1166,-99.5 1166,-74.5 792,-74.5"/>
<polygon fill="none" stroke="black" points="792,-74.5 792,-99.5 1166,-99.5 1166,-74.5 792,-74.5"/>
<text text-anchor="start" x="952.5" y="-83.3" font-family="Times,serif" font-size="14.00">ingress</text>
<polygon fill="lightgrey" stroke="transparent" points="1166,-74.5 1166,-99.5 1540,-99.5 1540,-74.5 1166,-74.5"/>
<polygon fill="none" stroke="black" points="1166,-74.5 1166,-99.5 1540,-99.5 1540,-74.5 1166,-74.5"/>
<text text-anchor="start" x="1329" y="-83.3" font-family="Times,serif" font-size="14.00">egress</text>
<polygon fill="none" stroke="black" points="260,-49.5 260,-74.5 399,-74.5 399,-49.5 260,-49.5"/>
<text text-anchor="start" x="265" y="-58.3" font-family="Times,serif" font-size="14.00">throughput(MB/s)</text>
<polygon fill="none" stroke="black" points="399,-49.5 399,-74.5 487,-74.5 487,-49.5 399,-49.5"/>
<text text-anchor="start" x="404" y="-58.3" font-family="Times,serif" font-size="14.00">request(/s)</text>
<polygon fill="none" stroke="black" points="487,-49.5 487,-74.5 626,-74.5 626,-49.5 487,-49.5"/>
<text text-anchor="start" x="492" y="-58.3" font-family="Times,serif" font-size="14.00">throughput(MB/s)</text>
<polygon fill="none" stroke="black" points="626,-49.5 626,-74.5 714,-74.5 714,-49.5 626,-49.5"/>
<text text-anchor="start" x="631" y="-58.3" font-family="Times,serif" font-size="14.00">request(/s)</text>
<polygon fill="none" stroke="black" points="792,-49.5 792,-74.5 929,-74.5 929,-49.5 792,-49.5"/>
<text text-anchor="start" x="797" y="-58.3" font-family="Times,serif" font-size="14.00">throughput(Mb/s)</text>
<polygon fill="none" stroke="black" points="929,-49.5 929,-74.5 1044,-74.5 1044,-49.5 929,-49.5"/>
<text text-anchor="start" x="934" y="-58.3" font-family="Times,serif" font-size="14.00">packetNum(/s)</text>
<polygon fill="none" stroke="black" points="1044,-49.5 1044,-74.5 1166,-74.5 1166,-49.5 1044,-49.5"/>
<text text-anchor="start" x="1049" y="-58.3" font-family="Times,serif" font-size="14.00">packetSize(Mb)</text>
<polygon fill="none" stroke="black" points="1166,-49.5 1166,-74.5 1303,-74.5 1303,-49.5 1166,-49.5"/>
<text text-anchor="start" x="1171" y="-58.3" font-family="Times,serif" font-size="14.00">throughput(Mb/s)</text>
<polygon fill="none" stroke="black" points="1303,-49.5 1303,-74.5 1418,-74.5 1418,-49.5 1303,-49.5"/>
<text text-anchor="start" x="1308" y="-58.3" font-family="Times,serif" font-size="14.00">packetNum(/s)</text>
<polygon fill="none" stroke="black" points="1418,-49.5 1418,-74.5 1540,-74.5 1540,-49.5 1418,-49.5"/>
<text text-anchor="start" x="1423" y="-58.3" font-family="Times,serif" font-size="14.00">packetSize(Mb)</text>
<polygon fill="lightgreen" stroke="transparent" points="0,-24.5 0,-49.5 41,-49.5 41,-24.5 0,-24.5"/>
<polygon fill="none" stroke="black" points="0,-24.5 0,-49.5 41,-49.5 41,-24.5 0,-24.5"/>
<text text-anchor="start" x="6.5" y="-33.3" font-family="Times,serif" font-size="14.00">Avg</text>
<polygon fill="none" stroke="black" points="41,-24.5 41,-49.5 124,-49.5 124,-24.5 41,-24.5"/>
<text text-anchor="start" x="48.5" y="-33.3" font-family="Times,serif" font-size="14.00">4.531938</text>
<polygon fill="none" stroke="black" points="124,-24.5 124,-49.5 260,-49.5 260,-24.5 124,-24.5"/>
<text text-anchor="start" x="158" y="-33.3" font-family="Times,serif" font-size="14.00">2.246125</text>
<polygon fill="none" stroke="black" points="260,-24.5 260,-49.5 399,-49.5 399,-24.5 260,-24.5"/>
<text text-anchor="start" x="291" y="-33.3" font-family="Times,serif" font-size="14.00">31.678125</text>
<polygon fill="none" stroke="black" points="399,-24.5 399,-49.5 487,-49.5 487,-24.5 399,-24.5"/>
<text text-anchor="start" x="404.5" y="-33.3" font-family="Times,serif" font-size="14.00">84.945625</text>
<polygon fill="none" stroke="black" points="487,-24.5 487,-49.5 626,-49.5 626,-24.5 487,-24.5"/>
<text text-anchor="start" x="545" y="-33.3" font-family="Times,serif" font-size="14.00">0.0</text>
<polygon fill="none" stroke="black" points="626,-24.5 626,-49.5 714,-49.5 714,-24.5 626,-24.5"/>
<text text-anchor="start" x="658.5" y="-33.3" font-family="Times,serif" font-size="14.00">0.0</text>
<polygon fill="none" stroke="black" points="714,-24.5 714,-49.5 792,-49.5 792,-24.5 714,-24.5"/>
<text text-anchor="start" x="723.5" y="-33.3" font-family="Times,serif" font-size="14.00">15.7875</text>
<polygon fill="none" stroke="black" points="792,-24.5 792,-49.5 929,-49.5 929,-24.5 792,-24.5"/>
<text text-anchor="start" x="822" y="-33.3" font-family="Times,serif" font-size="14.00">18.018198</text>
<polygon fill="none" stroke="black" points="929,-24.5 929,-49.5 1044,-49.5 1044,-24.5 929,-24.5"/>
<text text-anchor="start" x="939" y="-33.3" font-family="Times,serif" font-size="14.00">2908.501941</text>
<polygon fill="none" stroke="black" points="1044,-24.5 1044,-49.5 1166,-49.5 1166,-24.5 1044,-24.5"/>
<text text-anchor="start" x="1071" y="-33.3" font-family="Times,serif" font-size="14.00">6.357587</text>
<polygon fill="none" stroke="black" points="1166,-24.5 1166,-49.5 1303,-49.5 1303,-24.5 1166,-24.5"/>
<text text-anchor="start" x="1205" y="-33.3" font-family="Times,serif" font-size="14.00">0.93609</text>
<polygon fill="none" stroke="black" points="1303,-24.5 1303,-49.5 1418,-49.5 1418,-24.5 1303,-24.5"/>
<text text-anchor="start" x="1313" y="-33.3" font-family="Times,serif" font-size="14.00">1790.851497</text>
<polygon fill="none" stroke="black" points="1418,-24.5 1418,-49.5 1540,-49.5 1540,-24.5 1418,-24.5"/>
<text text-anchor="start" x="1445" y="-33.3" font-family="Times,serif" font-size="14.00">0.535283</text>
<polygon fill="lightgreen" stroke="transparent" points="0,0.5 0,-24.5 41,-24.5 41,0.5 0,0.5"/>
<polygon fill="none" stroke="black" points="0,0.5 0,-24.5 41,-24.5 41,0.5 0,0.5"/>
<text text-anchor="start" x="5" y="-8.3" font-family="Times,serif" font-size="14.00">Max</text>
<polygon fill="none" stroke="black" points="41,0.5 41,-24.5 124,-24.5 124,0.5 41,0.5"/>
<text text-anchor="start" x="48.5" y="-8.3" font-family="Times,serif" font-size="14.00">5.032562</text>
<polygon fill="none" stroke="black" points="124,0.5 124,-24.5 260,-24.5 260,0.5 124,0.5"/>
<text text-anchor="start" x="158" y="-8.3" font-family="Times,serif" font-size="14.00">14.71875</text>
<polygon fill="none" stroke="black" points="260,0.5 260,-24.5 399,-24.5 399,0.5 260,0.5"/>
<text text-anchor="start" x="295.5" y="-8.3" font-family="Times,serif" font-size="14.00">36.41875</text>
<polygon fill="none" stroke="black" points="399,0.5 399,-24.5 487,-24.5 487,0.5 399,0.5"/>
<text text-anchor="start" x="413.5" y="-8.3" font-family="Times,serif" font-size="14.00">92.7825</text>
<polygon fill="none" stroke="black" points="487,0.5 487,-24.5 626,-24.5 626,0.5 487,0.5"/>
<text text-anchor="start" x="545" y="-8.3" font-family="Times,serif" font-size="14.00">0.0</text>
<polygon fill="none" stroke="black" points="626,0.5 626,-24.5 714,-24.5 714,0.5 626,0.5"/>
<text text-anchor="start" x="658.5" y="-8.3" font-family="Times,serif" font-size="14.00">0.0</text>
<polygon fill="none" stroke="black" points="714,0.5 714,-24.5 792,-24.5 792,0.5 714,0.5"/>
<text text-anchor="start" x="719" y="-8.3" font-family="Times,serif" font-size="14.00">17.24375</text>
<polygon fill="none" stroke="black" points="792,0.5 792,-24.5 929,-24.5 929,0.5 792,0.5"/>
<text text-anchor="start" x="822" y="-8.3" font-family="Times,serif" font-size="14.00">18.565316</text>
<polygon fill="none" stroke="black" points="929,0.5 929,-24.5 1044,-24.5 1044,0.5 929,0.5"/>
<text text-anchor="start" x="939" y="-8.3" font-family="Times,serif" font-size="14.00">3108.131785</text>
<polygon fill="none" stroke="black" points="1044,0.5 1044,-24.5 1166,-24.5 1166,0.5 1044,0.5"/>
<text text-anchor="start" x="1066.5" y="-8.3" font-family="Times,serif" font-size="14.00">83.238281</text>
<polygon fill="none" stroke="black" points="1166,0.5 1166,-24.5 1303,-24.5 1303,0.5 1166,0.5"/>
<text text-anchor="start" x="1200.5" y="-8.3" font-family="Times,serif" font-size="14.00">0.986491</text>
<polygon fill="none" stroke="black" points="1303,0.5 1303,-24.5 1418,-24.5 1418,0.5 1303,0.5"/>
<text text-anchor="start" x="1313" y="-8.3" font-family="Times,serif" font-size="14.00">1891.572144</text>
<polygon fill="none" stroke="black" points="1418,0.5 1418,-24.5 1540,-24.5 1540,0.5 1418,0.5"/>
<text text-anchor="start" x="1445" y="-8.3" font-family="Times,serif" font-size="14.00">1.015625</text>
</g>
</g>
</svg>
